<svg version="1.2" xmlns="http://www.w3.org/2000/svg" viewBox="0 0 1080 1080" width="1080" height="1080">
	<title>Design sem nome</title>
	<style>
		.s0 { opacity: 1;fill: #30a67c } 
	</style>
	<g id="Layer 1">
		<path id="Path 1" class="s0" d="m521.5 78c-7.7 0.42-15.35 1.22-17 1.76-1.65 0.55-6.6 1.31-11 1.7-4.4 0.38-12.27 1.86-17.5 3.28-5.23 1.42-14.23 4.15-20 6.07-5.77 1.91-13.43 4.5-17 5.74-3.57 1.23-11.23 4.38-17 6.98-5.77 2.6-11.18 5.34-12 6.08-0.82 0.74-1.84 1.35-2.25 1.36-0.41 0.02-5.59 2.73-11.5 6.03-5.91 3.31-13.9 8.24-17.75 10.98-3.85 2.73-9.7 6.84-13 9.14-3.3 2.29-8.9 6.69-12.45 9.77-3.55 3.09-11.37 10.56-17.39 16.61-6.01 6.05-14.01 15.05-17.76 20-3.75 4.95-7.66 10.12-8.69 11.5-1.02 1.37-3.88 5.43-6.35 9-2.48 3.57-6.23 9.65-8.34 13.5-2.12 3.85-4.34 7.64-4.93 8.43-0.6 0.78-2.13 3.93-3.41 7-1.28 3.06-3.78 9.17-5.56 13.57-1.78 4.4-4.39 11.15-5.8 15-1.41 3.85-3.32 9.93-4.23 13.5-0.92 3.57-2.08 8.3-2.58 10.5-0.51 2.2-1.85 8.95-2.98 15-2.02 10.76-2.07 13.97-2.12 144.5l-0.06 133.5c4.07 11.62 6.72 16.8 8.53 19 1.8 2.2 5.27 5.61 7.7 7.59 2.43 1.97 6.67 4.83 9.42 6.35 2.75 1.53 8.82 3.84 13.5 5.15 4.68 1.31 10.3 2.38 12.5 2.38 2.2 0 6.7-0.72 10-1.59 3.3-0.87 7.69-2.43 9.75-3.48 2.06-1.04 5.34-3.59 7.28-5.65 1.94-2.06 4.7-6.67 6.12-10.25 2.07-5.17 2.87-9.77 3.93-22.5 0.74-8.8 1.82-17.58 2.4-19.5 0.58-1.92 1.73-10.02 2.55-18 0.82-7.98 1.92-16.08 2.43-18 0.52-1.92 1.45-9.35 2.07-16.5 0.62-7.15 1.74-16.15 2.5-20 0.76-3.85 2.08-13.75 2.93-22 0.85-8.25 1.97-16.57 2.5-18.5 0.53-1.93 1.46-9.35 2.06-16.5 0.61-7.15 1.73-15.7 2.48-19 0.75-3.3 1.84-10.95 2.43-17 0.58-6.05 1.93-15.05 3-20 1.06-4.95 2.36-11.93 2.88-15.5 0.52-3.57 1.69-11.23 2.6-17 0.91-5.77 2.54-14.77 3.61-20 1.08-5.23 2.43-14 3-19.5 0.57-5.5 1.74-12.93 2.61-16.5 1.08-4.45 1.82-14.68 2.35-32.5 0.7-23.37 1.01-26.61 3.03-32 1.57-4.19 3.79-7.53 7.37-11.06 4.08-4.04 6.03-5.21 9.62-5.78 2.48-0.39 6.07-0.41 8-0.04 1.93 0.37 4.9 1.62 6.61 2.78 1.71 1.15 4.21 3.45 5.55 5.1 1.35 1.65 3.62 5.7 5.05 9 1.43 3.3 2.9 8.93 3.26 12.5 0.36 3.57 1.48 10.78 2.5 16 1.02 5.22 2.14 13.1 2.51 17.5 0.36 4.4 1.51 13.18 2.56 19.5 1.05 6.32 2.4 17.35 3 24.5 0.6 7.15 1.5 14.57 1.98 16.5 0.49 1.93 1.58 9.13 2.42 16 0.85 6.88 1.99 14.07 2.55 16 0.55 1.93 1.45 8 2.01 13.5 0.55 5.5 1.7 12.7 2.56 16 0.85 3.3 2.2 10.95 3 17 0.79 6.05 1.9 12.57 2.46 14.5 0.56 1.93 1.73 10.02 2.59 18 0.86 7.98 2 15.63 2.53 17 0.53 1.38 1.4 9.48 1.94 18 0.54 8.52 1.4 17.98 1.91 21 0.51 3.02 1.37 10.9 1.92 17.5 0.55 6.6 1.23 14.92 1.52 18.5 0.28 3.58 0.86 6.85 1.29 7.29 0.43 0.43 2.03 0.21 3.55-0.5 1.52-0.71 3.19-2.41 3.71-3.79 0.52-1.37 1.26-3.85 1.63-5.5 0.37-1.65 1.45-4.58 2.4-6.5 0.94-1.92 2.02-5.3 2.38-7.5 0.36-2.2 1.52-7.37 2.58-11.5 1.07-4.12 2.69-10.65 3.61-14.5 0.92-3.85 2.74-12.63 4.04-19.5 1.31-6.87 3.09-16.77 3.96-22 0.86-5.23 2.42-13.55 3.45-18.5 1.03-4.95 2.16-12.15 2.5-16 0.34-3.85 1.22-9.48 1.95-12.5 0.73-3.02 1.86-8.65 2.5-12.5 0.64-3.85 2.45-9.7 4.02-13 1.58-3.3 4.13-7.19 5.68-8.63 1.55-1.45 5.07-3.82 7.82-5.26 3.19-1.67 6.62-2.62 9.5-2.64 3.03-0.01 6.21 0.88 9.74 2.75 2.89 1.53 7.31 4.8 9.84 7.28 2.53 2.48 7.54 9 11.14 14.5 3.6 5.5 7.54 11.57 8.77 13.5 1.22 1.93 4.61 7.55 7.53 12.5 2.92 4.95 7.2 11.93 9.52 15.5 2.32 3.57 6.64 10.59 9.59 15.58 2.95 4.99 6.83 10.73 8.62 12.75 1.79 2.02 4.6 4.35 6.25 5.17 1.65 0.82 4.24 1.58 5.75 1.68 1.51 0.1 4.55-0.41 6.75-1.13 2.2-0.72 6.92-2.65 10.5-4.31 3.58-1.65 8.3-3.81 10.5-4.79 2.2-0.99 7.38-2.96 11.5-4.37 4.25-1.45 14.01-3.44 22.5-4.57 8.25-1.1 18.26-2 22.25-2 3.99-0.01 13.21 0.9 20.5 2.01 7.29 1.11 16.63 3.23 20.75 4.7 4.13 1.47 10.42 4.22 14 6.11 3.58 1.89 8.08 4.3 10 5.34 1.92 1.05 5.36 3.13 7.63 4.62 2.26 1.49 5.41 3.59 7 4.66 1.58 1.07 6.47 4.92 10.87 8.55 4.4 3.63 9.58 7.75 11.5 9.17 1.92 1.41 4.63 2.84 6 3.17 1.54 0.37 3.61-0.06 5.38-1.12 2.19-1.31 3.44-3.4 5.2-8.72 1.28-3.85 3-11.5 3.84-17 0.83-5.5 2.3-12.93 3.25-16.5 1.49-5.63 1.73-11.81 1.76-46 0.03-36.67-0.12-40.18-2.09-49-1.17-5.23-2.43-11.98-2.8-15-0.36-3.02-1.58-8.87-2.69-13-1.12-4.12-3.14-11.32-4.49-16-1.35-4.68-3.3-10.75-4.32-13.5-1.03-2.75-2.42-6.8-3.1-9-0.68-2.2-2.07-5.57-3.09-7.5-1.02-1.93-1.86-3.84-1.85-4.25 0-0.41-2.27-5.59-5.03-11.5-2.77-5.91-5.72-11.87-6.56-13.25-0.83-1.37-2.23-4.07-3.1-6-0.87-1.93-2.35-4.62-3.29-6-0.95-1.37-5.1-7.68-9.23-14-4.14-6.32-8.14-12.18-8.9-13-0.77-0.82-4.27-5.32-7.79-10-3.52-4.68-11.62-13.82-18-20.32-6.38-6.51-16.33-15.76-22.1-20.56-5.77-4.8-13.65-10.96-17.5-13.7-3.85-2.73-8.29-5.86-9.88-6.94-1.58-1.09-4.95-3.28-7.5-4.87-2.54-1.59-6.2-3.79-8.12-4.9-1.92-1.1-7.55-4.21-12.5-6.91-4.95-2.69-11.92-6.26-15.5-7.93-3.58-1.67-8.75-3.94-11.5-5.05-2.75-1.1-7.92-3.1-11.5-4.45-3.58-1.34-10.55-3.8-15.5-5.47-4.95-1.67-13.95-4.31-20-5.86-6.05-1.56-13.48-3.13-16.5-3.51-3.02-0.37-9.1-1.29-13.5-2.05-4.4-0.76-16.55-1.58-27-1.82-10.45-0.24-25.3-0.09-33 0.34zm-101.89 278.29c-1.3 1.77-2.84 4.78-3.43 6.71-0.59 1.92-1.37 6.2-1.73 9.5-0.37 3.3-1.27 8.7-2.01 12-0.73 3.3-1.84 12.52-2.46 20.5-0.62 7.98-1.74 17.2-2.5 20.5-0.75 3.3-1.85 12.75-2.45 21-0.59 8.25-1.73 17.7-2.52 21-0.79 3.3-1.71 10.27-2.06 15.5-0.34 5.23-1.26 13.32-2.05 18-0.79 4.67-1.89 14.35-2.44 21.5-0.54 7.15-1.86 17.95-2.92 24-1.06 6.05-2.23 14.6-2.61 19-0.37 4.4-1.47 11.15-2.45 15-0.97 3.85-2.09 10.15-2.49 14-0.4 3.85-1.98 11.95-3.5 18-1.53 6.05-4.07 13.23-5.64 15.95-1.57 2.72-4.99 6.77-7.61 9-2.61 2.23-6.89 5.3-9.5 6.82-2.61 1.53-5.42 3.05-6.24 3.39-0.82 0.34-4.2 1.66-7.5 2.95-3.3 1.28-9.6 2.84-14 3.46-4.84 0.69-12.54 0.87-19.5 0.47-6.32-0.36-13.07-1.06-15-1.54-1.93-0.49-5.75-1.63-8.5-2.53-2.75-0.91-8.04-2.96-11.75-4.56-3.77-1.62-7.74-2.7-9-2.42-1.24 0.26-2.81 1.05-3.49 1.75-0.98 0.99-1.24 29.64-1.22 134.76 0.02 130.82 0.06 133.68 2.07 142.5 1.12 4.95 3.38 12.6 5.01 17 1.63 4.4 3.91 9.8 5.06 12 1.16 2.2 3.7 6.48 5.66 9.5 1.96 3.02 7.19 9.22 11.61 13.77 4.43 4.55 10.75 10.09 14.05 12.31 3.3 2.22 8.48 5.17 11.5 6.56 3.02 1.39 6.18 2.88 7 3.31 0.82 0.43 6.79 2.19 13.25 3.92 10.5 2.8 13.21 3.13 25.5 3.11 7.56-0.02 15.32-0.44 17.25-0.95 1.93-0.51 6.43-1.77 10-2.8 3.57-1.02 10.55-3.85 15.5-6.27 4.95-2.43 11.93-6.86 15.5-9.86 3.57-2.99 9.1-8.18 12.27-11.52 3.18-3.34 8.01-9.34 10.75-13.33 2.74-3.99 4.98-7.59 4.99-8 0-0.41 0.73-2.1 1.62-3.75 0.89-1.65 2.94-7.27 4.55-12.5 2.3-7.45 3.13-12.63 3.85-24 0.5-7.98 0.93-43.41 0.94-78.75l0.03-64.25c3.75-16.66 6.09-23.75 7.61-26.5 1.52-2.75 3.92-6.56 5.33-8.47 1.41-1.91 4.58-5.44 7.06-7.85 2.48-2.41 6.75-5.82 9.5-7.57 2.75-1.75 7.93-4.49 11.5-6.09l6.5-2.9c71.96-0.25 75.69-0.43 83.5-2.36 4.67-1.15 10.52-2.39 13-2.74 2.48-0.36 7.88-1.56 12-2.67 4.13-1.12 12-3.41 17.5-5.09 5.5-1.69 12.7-4.16 16-5.5 3.3-1.33 8.48-3.55 11.5-4.92 3.02-1.37 7.52-3.47 10-4.67 2.48-1.19 8.55-4.36 13.5-7.05 4.95-2.68 10.69-5.94 12.75-7.25 2.06-1.3 5.66-3.6 8-5.09 2.34-1.5 7.63-5.21 11.75-8.25 4.13-3.04 8.37-6.2 9.43-7.03 1.06-0.83 4.21-3.5 7-5.95 2.79-2.45 10.18-9.42 16.43-15.5 6.25-6.08 14.75-15.1 18.9-20.05 4.15-4.95 7.81-9.23 8.15-9.5 0.33-0.27 1.95-2.28 3.6-4.46 1.64-2.18 3.66-4.94 4.49-6.14 0.83-1.19 3.72-5.48 6.44-9.53 2.72-4.06 7.56-11.98 10.75-17.62 3.2-5.64 6.95-13.29 8.33-17 1.43-3.81 2.52-8.82 2.5-11.5-0.02-4-0.63-5.5-3.87-9.5-2.11-2.61-7.18-7.9-11.27-11.75-4.09-3.85-12.15-10.21-17.91-14.14-5.76-3.93-14.3-9.05-18.97-11.39-4.67-2.34-12.55-5.58-17.5-7.2-8.54-2.81-9.86-2.95-26-2.94-14.41 0-17.99 0.32-23.5 2.08-3.58 1.13-7.06 2.07-7.75 2.08-0.69 0-4.51 1.39-8.5 3.07-3.99 1.68-9.5 4.11-12.25 5.39-2.75 1.29-7.7 3.56-11 5.04-3.3 1.49-7.8 3.52-10 4.52-2.2 1-6.7 2.23-10 2.73-4.07 0.61-7.93 0.52-12-0.28-3.3-0.65-8-2.48-10.44-4.07-2.45-1.59-5.59-4.02-6.99-5.39-1.4-1.38-3.47-3.85-4.59-5.5-1.12-1.65-3.22-5.02-4.66-7.5-1.45-2.48-5.99-11.25-10.09-19.5-4.11-8.25-8.31-16.78-9.35-18.95-1.03-2.18-3.72-6-5.97-8.5-2.42-2.71-5.36-4.85-7.25-5.3-2.03-0.48-3.86-0.3-5.11 0.5-1.08 0.69-2.73 2.6-3.67 4.25-0.93 1.65-2.73 7.27-3.98 12.5-1.26 5.23-2.8 13.32-3.43 18-0.63 4.68-1.52 9.18-1.96 10-0.45 0.82-1.53 5.1-2.41 9.5-0.87 4.4-2.25 10.48-3.06 13.5-0.81 3.02-2.6 10.23-3.98 16-1.38 5.77-2.92 12.75-3.43 15.5-0.51 2.75-2.72 11.98-4.91 20.5-2.19 8.52-4.27 17.3-4.62 19.5-0.35 2.2-1.52 7.37-2.6 11.5-1.08 4.12-2.66 11.1-3.52 15.5-0.86 4.4-2.24 12.05-3.07 17-0.82 4.95-2.88 13.05-4.56 18-2.47 7.31-3.95 9.94-7.85 14-2.83 2.95-6.38 5.51-8.65 6.23-2.12 0.68-6.1 1.22-8.85 1.21-2.75-0.02-6.57-0.58-8.5-1.25-1.93-0.67-4.88-2.34-6.57-3.7-1.68-1.37-4.19-4.07-5.57-5.99-1.38-1.92-3.46-6.42-4.62-10-1.15-3.58-2.35-7.85-2.65-9.5-0.3-1.65-1.04-9.75-1.64-18-0.6-8.25-1.49-17.02-1.99-19.5-0.49-2.48-1.6-15.08-2.46-28-0.85-12.92-2.19-27.1-2.98-31.5-0.79-4.4-1.91-13.63-2.51-20.5-0.59-6.88-1.73-15.88-2.53-20-0.81-4.13-1.91-12.45-2.44-18.5-0.54-6.05-1.45-12.57-2.03-14.5-0.58-1.93-1.75-9.8-2.6-17.5-0.85-7.7-1.96-15.8-2.47-18-0.51-2.2-1.41-12.1-2-22-0.62-10.2-1.73-19.95-2.57-22.5-0.81-2.48-2.02-5.75-2.68-7.29-0.65-1.53-1.76-2.97-2.45-3.21-0.7-0.23-2.33 1.02-3.63 2.79z"/>
	</g>
</svg>