<svg version="1.2" xmlns="http://www.w3.org/2000/svg" viewBox="0 0 735 240" width="735" height="240">
	<title>logo</title>
	<style>
		.s0 { opacity: .95;fill: #30a67c } 
	</style>
	<path id="Path 0" fill-rule="evenodd" class="s0" d="m78.75 27.02c8.82-0.02 12.6 0.43 17.5 2.08 3.44 1.16 8.28 3.13 10.75 4.39 2.47 1.26 7.2 4.31 10.5 6.77 3.3 2.47 7.88 6.91 10.18 9.86 2.3 2.96 5.56 8.19 7.25 11.63 1.69 3.44 3.84 9.06 4.78 12.5 1.12 4.07 1.71 9.91 1.71 16.75 0 5.78-0.55 12.41-1.21 14.75-0.67 2.34-1.66 4.25-2.21 4.25-0.55 0-3.36-1.78-6.25-3.95-2.89-2.17-6.82-4.41-8.75-4.98-1.93-0.57-5.75-1.02-8.5-1.01-2.75 0.02-6.8 0.73-9 1.58-2.2 0.85-5.24 1.73-6.75 1.95-2.45 0.37-3.17-0.27-6.5-5.7-2.06-3.36-4.99-7.86-6.5-10-1.77-2.5-3.55-3.91-5-3.93-1.24-0.03-2.8 0.53-3.48 1.25-0.67 0.71-1.71 4.21-2.3 7.79-0.6 3.58-2 10.78-3.13 16-1.12 5.22-2.56 10.09-3.19 10.82-0.95 1.1-1.26 1.1-1.78 0-0.35-0.73-0.95-5.37-1.34-10.32-0.39-4.95-1.34-12.37-2.12-16.5-0.77-4.12-2.1-13.12-2.95-20-0.84-6.87-1.96-14.19-2.5-16.25-0.84-3.29-1.33-3.75-3.96-3.75-2.33 0-3.09 0.5-3.38 2.25-0.22 1.24-1.37 9.22-2.58 17.75-1.2 8.53-2.78 19.78-3.5 25-0.73 5.22-2.16 15.52-3.18 22.89-1.53 10.99-2.22 13.63-3.86 14.75-1.1 0.76-3.69 1.37-5.75 1.37-2.73-0.01-4.64-0.81-10.25-5.85v-29.83c0-29.08 0.06-30.01 2.45-36.83 1.35-3.85 4.1-9.48 6.13-12.5 2.02-3.03 5.91-7.53 8.63-10 2.72-2.48 7.39-5.82 10.37-7.44 2.98-1.62 8.35-3.97 11.92-5.23 5.27-1.86 8.63-2.29 17.75-2.31zm-23.54 55.62c0.43 0.47 1.24 4.69 1.8 9.36 0.57 4.67 1.91 16.15 3 25.5 1.08 9.35 1.95 17.68 1.94 18.5-0.02 0.82 0.83 2.63 1.9 4 1.74 2.25 2.18 2.38 4.54 1.25q2.61-1.25 3.58-5c0.53-2.06 2.07-8.7 3.42-14.75 1.36-6.05 3.06-13.67 3.79-16.93 0.72-3.26 1.85-6.64 2.51-7.5 1.06-1.4 1.35-1.4 2.69-0.07 0.83 0.83 2.79 3.97 4.37 7 1.57 3.03 3.96 6.13 5.31 6.9 2.2 1.27 3.03 1.14 8.44-1.33 4.09-1.87 7.75-2.76 11.5-2.81q5.5-0.07 9.5 1.96c2.2 1.12 5.46 3.21 7.25 4.66 2.22 1.79 3.26 3.49 3.28 5.37 0.01 1.52-1.7 5.43-3.84 8.75-2.12 3.3-6.74 8.72-10.27 12.04-3.81 3.57-9.47 7.55-13.92 9.76-4.63 2.31-10.75 4.34-16 5.32-4.68 0.87-9.85 1.34-11.5 1.04-1.65-0.3-4.69-0.12-6.75 0.4-2.14 0.53-4.83 2.23-6.25 3.94-2.45 2.94-2.5 3.35-2.51 19.75 0 9.21-0.43 18.32-0.95 20.25-0.53 1.93-2.01 5.07-3.29 7-1.29 1.93-4.12 4.53-6.29 5.79-3.3 1.91-5.15 2.24-11.12 2-6.27-0.25-7.62-0.67-11-3.38-2.11-1.7-4.97-5.07-8.84-11.91v-28.66c0-15.77 0.22-28.9 0.5-29.17 0.28-0.28 2.97 0.13 6 0.9 3.95 1.01 6.49 1.14 9 0.44 1.93-0.53 4.51-1.65 5.75-2.49 1.52-1.03 2.59-3.22 3.29-6.77 0.58-2.89 1.45-8.4 1.95-12.25 0.49-3.85 1.66-13.53 2.59-21.5 0.93-7.97 2.18-15.34 2.77-16.36 0.6-1.02 1.44-1.47 1.86-1zm645.54-50.6c3.32-0.02 6.72 0.69 9.25 1.96q4 2 6 6c1.1 2.2 1.99 5.91 1.98 8.25-0.01 2.54-0.91 5.82-2.25 8.15-1.22 2.14-3.81 4.73-5.73 5.75-2.13 1.13-5.55 1.86-8.75 1.85-3.15 0-6.75-0.76-9-1.89-2.38-1.2-4.63-3.49-6.15-6.25-1.89-3.44-2.3-5.42-1.97-9.36 0.27-3.17 1.27-6.1 2.73-8 1.27-1.65 3.73-3.77 5.47-4.71 1.79-0.96 5.45-1.72 8.42-1.75zm-256.25 12.04c1.65-0.04 4.69 0.38 6.75 0.93 2.26 0.6 4.44 2.06 5.5 3.69 1.31 2.03 1.87 5.59 2.75 25.8l8.17 0.5c7 0.43 8.55 0.86 10.74 3 1.4 1.38 2.81 4.08 3.12 6 0.31 1.93 0.09 4.96-0.48 6.75-0.65 2-2.2 3.82-4.05 4.75-1.87 0.93-5.83 1.5-18 1.5l0.03 21.25c0.03 18.89 0.24 21.58 1.88 24.25 1.02 1.65 3.37 3.57 5.22 4.27 1.85 0.69 4.83 1.26 6.62 1.25 1.79-0.01 4.6 0.66 6.25 1.48 1.65 0.82 3.45 2.4 4 3.5 0.55 1.1 1 3.57 1 5.5 0 1.93-0.56 4.68-1.25 6.12-0.69 1.45-3.05 3.56-5.25 4.71-3.32 1.73-5.71 2.07-14 2.01-6.69-0.06-11.49-0.64-14.5-1.75-2.48-0.92-6.19-2.78-8.25-4.13-2.51-1.65-4.66-4.36-6.5-8.21-2.74-5.73-2.75-5.83-3.75-59.75l-5.67-0.5c-4.26-0.38-6.31-1.12-8.24-3-1.42-1.37-2.84-4.07-3.16-6-0.37-2.17 0.01-4.92 0.99-7.25 0.87-2.06 2.48-4.2 3.58-4.75 1.1-0.55 4.25-1 7-1 3.1 0 5.16-0.47 5.43-1.25 0.24-0.69 0.69-5.86 1-11.5 0.32-5.64 0.96-11.26 1.44-12.5 0.48-1.24 1.95-2.78 3.25-3.43 1.31-0.64 3.05-1.4 3.88-1.67 0.83-0.27 2.85-0.53 4.5-0.57zm-240.5 29.5c3.57 0.31 7.4 1.06 8.5 1.67 1.1 0.61 2.76 2.04 3.69 3.18 0.93 1.14 1.97 3.65 2.32 5.57 0.35 1.93 0.18 5.3-0.38 7.5-0.56 2.2-1.99 4.9-3.18 6-1.73 1.6-4.09 2.12-11.81 2.6-7.55 0.47-10.58 1.12-13.97 3-2.39 1.32-5.29 3.98-6.46 5.9-1.16 1.93-2.38 4.85-3.29 9.5l-13.71 0.25c-10.39 0.19-13.73-0.05-13.81-1-0.06-0.69-0.02-9.12 0.08-18.75 0.11-11.02 0.62-18.43 1.36-20 0.73-1.54 2.71-3.01 5.17-3.84 2.5-0.83 6.05-1.12 9.49-0.76 3.83 0.41 6.2 1.27 7.79 2.84 1.25 1.24 2.52 3.16 2.82 4.26 0.52 1.92 0.64 1.9 3.21-0.55 1.48-1.4 3.55-3.2 4.61-4 1.07-0.8 3.99-2.01 6.5-2.69 2.73-0.74 7.19-1.01 11.07-0.68zm61.5-0.13c5.57 0.27 11.1 1.2 14.5 2.45 3.02 1.11 7.39 3.27 9.71 4.81 2.31 1.53 5.87 4.37 7.9 6.29 2.02 1.93 5.06 5.53 6.74 8 1.68 2.47 4.07 7.43 5.33 11 1.25 3.58 2.29 7.96 2.32 13l-35.42 0.5-2.04 3.02c-1.12 1.66-2.83 6.5-3.79 10.75-1.23 5.43-2.2 7.73-3.25 7.73-0.83 0-1.89-1.01-2.36-2.25-0.48-1.24-1.62-6.53-2.54-11.75-0.92-5.22-2.59-13.78-3.71-19-1.12-5.22-2.45-10.85-2.96-12.5-0.5-1.65-1.82-3.56-2.92-4.25-1.12-0.69-2.74-0.92-3.65-0.5-0.9 0.41-2.2 1.88-2.89 3.25-0.68 1.38-2.7 7.22-4.47 13-1.78 5.78-3.74 10.83-4.36 11.23-0.63 0.41-6.2 0.75-12.39 0.75-8.04 0.02-11.42-0.34-11.83-1.23-0.32-0.69 0.17-3.95 1.09-7.25 0.92-3.3 3.09-8.69 4.83-11.99 1.74-3.29 5.65-8.46 8.69-11.5 3.04-3.03 7.99-6.82 11-8.41 3.01-1.6 8.17-3.5 11.47-4.24 3.64-0.81 9.54-1.17 15-0.91zm107.75-0.34c3.16-0.06 7.89 0.34 10.5 0.88 2.61 0.54 6.77 2.34 9.25 3.99 2.48 1.64 5.76 4.91 7.3 7.26 1.54 2.34 3.69 7.19 4.77 10.76 1.78 5.86 1.97 9.54 2.01 68.5l-2.79 2.73c-1.72 1.69-4.14 2.86-6.29 3.06-1.93 0.18-5.62 0.08-8.21-0.23-3-0.36-5.53-1.38-7-2.84-2.25-2.23-2.3-2.73-2.81-30.5-0.46-24.6-0.76-28.67-2.34-31.72-0.99-1.92-3-4.39-4.47-5.48q-2.67-1.97-8.67-2.3c-4.72-0.26-6.69 0.11-9.25 1.73-1.79 1.13-4.04 3.27-5 4.75-0.96 1.49-1.98 5.43-2.75 14.8l-13.75 0.25c-13.52 0.25-13.76 0.21-14.33-2-0.31-1.24-0.43-9.98-0.25-19.42 0.32-16.75 0.39-17.23 2.83-19.75 1.77-1.83 3.95-2.75 7.5-3.17 2.75-0.33 6.91-0.11 9.25 0.5 3.17 0.81 4.82 2 8.75 8.19l2.5-2.44c1.37-1.34 4.07-3.21 6-4.17 1.92-0.95 5.3-2.08 7.5-2.5 2.2-0.42 6.59-0.82 9.75-0.88zm257.5 0.01c3.44-0.07 9.51 0.37 13.5 0.98 4.53 0.68 9.47 2.28 13.16 4.25 3.24 1.73 7.65 5.18 9.78 7.65 2.28 2.64 4.8 7.18 6.1 11 2.08 6.13 2.21 8.16 2.19 35.5-0.02 23.36-0.32 29.64-1.5 32.31-1.12 2.48-2.59 3.7-5.98 4.91-3.12 1.11-5.88 1.39-9 0.91-2.48-0.38-5.51-1.35-6.75-2.16-1.24-0.81-2.7-2.59-4.25-6.47l-5.25 3.56c-2.89 1.96-7.05 4.09-9.25 4.73-2.2 0.65-8.27 1.16-13.5 1.14-8.03-0.02-10.35-0.42-15-2.57-3.02-1.4-6.85-3.68-8.5-5.07-1.65-1.4-4.13-4.73-5.5-7.41-2.09-4.08-2.5-6.27-2.49-13.38 0.01-6.69 0.46-9.35 2.12-12.5 1.15-2.2 3.62-5.31 5.48-6.91 1.87-1.6 5.87-4.04 8.89-5.41 3.02-1.38 10.23-3.28 16-4.22 5.77-0.95 13.54-2 17.25-2.34 5.38-0.49 6.95-1.03 7.75-2.62 0.69-1.39 0.62-3.14-0.25-5.71-0.78-2.31-2.57-4.59-4.75-6.03-2.74-1.81-4.86-2.31-9.75-2.29-3.44 0.02-7.49 0.52-9 1.12-1.51 0.61-4.89 3.08-7.5 5.5-4.35 4.04-5.19 4.41-10 4.43-2.89 0.01-5.97-0.56-6.85-1.25-0.89-0.7-2.35-2.39-3.26-3.77-0.91-1.37-1.65-3.74-1.65-5.25 0.01-1.51 0.87-4.44 1.92-6.5 1.05-2.06 3.42-5.19 5.25-6.95 1.84-1.76 5.36-4.11 7.84-5.22 2.48-1.12 7.2-2.43 10.5-2.93 3.3-0.5 8.81-0.96 12.25-1.03zm-7.72 60.64c-1.91 0.96-4.27 3.09-5.25 4.74-1.37 2.33-1.56 3.67-0.82 6 0.52 1.65 2.1 3.79 3.5 4.75 1.7 1.18 4.43 1.74 8.29 1.73 4.1-0.01 6.87-0.66 9.66-2.25 2.14-1.22 4.75-3.35 5.78-4.73 1.03-1.37 2.2-5.09 2.59-8.26l0.72-5.76c-6.98 0.2-11.7 0.67-15 1.16-3.3 0.49-7.56 1.67-9.47 2.62zm-115.53-59.33c5.91 0.36 7.39 0.84 12 5.61l0.5 29.23c0.43 25.31 0.73 29.67 2.25 32.48 0.96 1.79 3.1 3.93 4.75 4.75 1.65 0.82 5.36 1.5 8.25 1.5q5.25-0.01 8.5-2c1.79-1.1 4.03-3.46 4.99-5.25 1.5-2.79 1.82-7.18 2.25-31.3 0.45-24.46 0.73-28.39 2.26-30.75 1.14-1.76 3.23-3.08 6-3.79 2.36-0.61 6.25-0.78 8.75-0.4 2.48 0.38 5.29 1.09 6.25 1.59 0.96 0.49 2.42 2.25 3.25 3.9 1.27 2.55 1.46 9.21 1 85.17l-2.75 2.42c-2.3 2.02-3.81 2.41-9.25 2.41-3.78 0-7.76-0.63-9.5-1.5-1.78-0.89-3.2-2.52-3.5-4-0.27-1.37-0.73-2.5-1-2.5-0.27 0-1.96 1.35-3.75 3-1.79 1.66-5.27 3.69-7.75 4.51-2.48 0.83-7.2 1.79-10.5 2.13-3.96 0.42-8.55 0.08-13.5-0.98-5.37-1.15-8.85-2.61-12.25-5.14-3.42-2.53-5.6-5.27-7.77-9.77-2.22-4.6-3.3-8.76-4.07-15.75-0.58-5.22-0.91-20.82-0.73-34.65 0.29-22.63 0.5-25.37 2.16-27.38 1.01-1.23 2.81-2.63 4-3.1 1.19-0.48 5.31-0.67 9.16-0.44zm193.5-0.37c1.92-0.03 5.19 0.4 7.25 0.95 2.06 0.54 4.41 2 5.22 3.24 1.21 1.86 1.47 8.15 1.52 36.25 0.03 18.7 0.05 37.49 0.03 41.75-0.02 7.26-0.21 7.94-3.02 10.75-2.89 2.89-3.29 2.99-11.09 2.75-7.41-0.23-8.28-0.48-12.91-5.75l0.01-41.25c0.02-31.18 0.33-41.86 1.28-43.75 0.7-1.38 2.82-3.04 4.74-3.69 1.91-0.66 5.05-1.22 6.97-1.25zm-450.36 31.94c0.75 0 1.75 1.68 2.23 3.75 0.48 2.06 2.39 11.61 4.25 21.22 2.21 11.41 4.09 18.52 5.42 20.5 1.3 1.94 2.89 3.03 4.39 3.03 1.35 0 3.15-1.07 4.22-2.5 1.02-1.38 3.03-7.22 4.46-13 1.43-5.78 3.12-11.03 3.75-11.68 0.76-0.79 6.33-1.26 32.14-1.66l-0.22 5.92c-0.16 4.44-1.08 7.66-3.68 12.92-1.91 3.85-5 8.8-6.86 11-1.86 2.2-6.28 5.86-9.81 8.12-3.54 2.27-8.91 4.86-11.93 5.76-3.02 0.9-8.2 1.91-11.5 2.25-3.39 0.35-9.26 0.06-13.5-0.67-4.23-0.72-10.34-2.7-14-4.53-4.32-2.16-8.6-5.47-12.75-9.84-3.66-3.86-7.47-9.18-9.2-12.84-1.62-3.44-3.44-8.72-4.06-11.75-0.61-3.03-0.89-5.67-0.61-5.88 0.27-0.21 6.33-0.43 13.45-0.5 11.49-0.11 13.2-0.35 15.08-2.12 1.17-1.1 3.31-5.49 4.75-9.75 1.55-4.59 3.17-7.75 3.98-7.75zm-84.97 19.69c7.05 0.1 13.17 0.21 13.58 0.25 0.41 0.03 0.75 7.93 0.75 17.56 0 12.2-0.4 18.48-1.32 20.75-0.76 1.87-2.57 3.81-4.25 4.58-1.85 0.83-5.64 1.2-10.26 1-6.54-0.29-7.6-0.63-9.75-3.08-2.36-2.68-2.42-3.21-2.59-21.58-0.09-10.36 0.1-19.02 0.42-19.25 0.32-0.23 6.36-0.34 13.42-0.23zm180.83-0.19l0.5 38.5-2.92 3c-2.71 2.78-3.46 3-10 3-3.9 0-8.09-0.45-9.33-1-1.24-0.56-2.93-2.2-3.75-3.66-1.17-2.07-1.5-6.4-1.5-19.75 0-9.4 0.28-17.77 0.62-18.59 0.51-1.22 3-1.5 26.38-1.5z"/>
</svg>